<?xml version="1.0" standalone="no"?>
<!DOCTYPE svg PUBLIC "-//W3C//DTD SVG 20010904//EN"
 "http://www.w3.org/TR/2001/REC-SVG-20010904/DTD/svg10.dtd">
<svg version="1.0" xmlns="http://www.w3.org/2000/svg"
 width="1024.000000pt" height="1024.000000pt" viewBox="0 0 1024.000000 1024.000000"
 preserveAspectRatio="xMidYMid meet">

<g transform="translate(0.000000,1024.000000) scale(0.100000,-0.100000)"
fill="#000000" stroke="none">
<path d="M0 5120 l0 -5120 5120 0 5120 0 0 5120 0 5120 -5120 0 -5120 0 0
-5120z m5526 2879 c12 -11 28 -34 34 -49 36 -86 -81 -176 -160 -124 -40 27
-50 45 -50 94 0 47 15 70 65 99 28 16 83 6 111 -20z m159 -445 c22 -3 55 -8
73 -10 18 -2 38 -6 44 -10 6 -4 25 -8 42 -10 27 -3 173 -69 186 -85 8 -9 39
-19 137 -45 298 -78 569 -217 833 -428 117 -94 316 -300 412 -426 298 -396
479 -908 495 -1406 6 -169 6 -172 -16 -179 -11 -3 -21 -12 -21 -20 0 -7 -7
-15 -15 -19 -8 -3 -15 -12 -15 -21 0 -8 -6 -15 -12 -15 -12 0 -24 -16 -64 -82
-30 -49 -80 -118 -86 -118 -3 0 -16 -16 -28 -35 -12 -19 -28 -35 -35 -35 -7 0
-16 -7 -19 -16 -3 -8 -10 -12 -16 -9 -5 3 -10 -2 -11 -12 0 -11 -6 -6 -15 15
-12 27 -12 44 -2 105 16 96 16 498 0 602 -26 161 -81 395 -101 433 -4 7 -8
-12 -9 -43 -1 -31 2 -54 6 -51 4 2 8 -21 10 -52 1 -32 9 -75 16 -97 8 -22 11
-41 8 -42 -4 -2 -5 -78 -3 -169 3 -156 -6 -252 -29 -309 -4 -11 -13 -39 -20
-62 -26 -84 -71 -131 -83 -85 -3 9 -6 -10 -7 -43 -2 -60 -2 -60 -11 -20 -5 22
-11 123 -13 225 -3 102 -12 237 -21 300 -91 649 -512 1251 -1074 1534 -84 43
-274 109 -396 139 l-90 22 -1280 0 -1280 0 -75 -36 c-139 -68 -208 -165 -211
-298 -1 -43 3 -76 9 -80 6 -3 20 -31 31 -61 11 -30 34 -70 50 -88 l30 -32 -25
0 c-24 0 -24 0 8 -29 18 -15 40 -31 48 -35 8 -3 2 -4 -15 0 -62 12 -140 58
-204 123 -110 109 -161 236 -161 402 0 254 157 481 392 566 l73 27 980 8 c957
8 1046 11 1029 39 -3 5 9 9 25 9 17 0 31 4 31 10 0 5 7 7 15 4 8 -4 15 -1 15
5 0 6 10 11 23 11 12 0 45 7 72 16 88 27 258 35 370 18z m1763 -252 c5 -32
-34 -49 -59 -26 -23 21 -24 37 -3 59 14 14 19 14 38 2 11 -8 22 -24 24 -35z
m-1803 -534 c121 -22 199 -42 308 -83 149 -54 267 -109 342 -159 39 -25 79
-52 89 -58 54 -36 210 -185 256 -244 8 -11 31 -40 51 -64 94 -118 203 -304
256 -435 74 -184 115 -341 138 -525 36 -280 -4 -601 -110 -875 -83 -215 -179
-377 -320 -538 -247 -283 -570 -475 -945 -563 -157 -37 -373 -43 -1450 -39
-519 2 -989 0 -1045 -5 -119 -9 -172 -31 -245 -99 -41 -38 -50 -53 -51 -82 0
-33 -1 -33 -11 -9 l-10 25 -11 -22 c-18 -41 -27 -24 -27 53 0 114 14 155 74
217 38 39 68 59 116 78 l65 24 565 0 c311 0 587 -3 614 -7 27 -4 54 -4 60 1 6
5 20 11 31 13 14 3 -2 15 -58 41 -204 96 -374 254 -478 443 l-41 74 -377 0
c-355 0 -381 1 -442 21 -116 37 -189 91 -253 187 -91 136 -101 325 -25 477 25
50 130 155 155 155 8 0 14 4 14 9 0 4 30 19 68 32 l67 24 593 2 592 2 1 -22
c1 -22 1 -22 7 -1 6 18 14 20 77 19 39 -1 174 1 300 5 127 3 237 3 245 -1 10
-5 6 -7 -10 -7 -14 0 -43 -5 -65 -11 -22 -6 -97 -11 -167 -11 -79 0 -128 -4
-128 -10 0 -5 5 -10 10 -10 6 0 10 -4 10 -8 0 -14 -151 -11 -189 4 -30 11 -32
14 -11 13 39 -2 54 1 47 7 -3 4 -24 7 -47 8 -37 2 -40 0 -40 -24 l0 -27 -117
-6 c-66 -4 -119 -11 -121 -17 -2 -5 -21 -10 -43 -10 -30 0 -37 -3 -33 -15 5
-12 -5 -15 -54 -15 -34 0 -64 5 -67 10 -3 6 -19 10 -36 10 -23 0 -29 -4 -30
-22 -1 -21 -2 -20 -14 6 -13 30 -52 48 -41 19 3 -8 6 -21 6 -29 0 -8 7 -14 15
-14 8 0 15 -9 15 -20 0 -29 13 -24 28 10 13 28 52 43 52 20 0 -5 9 -10 20 -10
11 0 20 -4 20 -10 0 -5 18 -10 40 -10 22 0 40 -4 40 -10 0 -5 -18 -10 -40 -10
-22 0 -40 5 -40 10 0 6 -9 10 -20 10 -11 0 -20 5 -20 10 0 6 -9 10 -20 10 -27
0 -25 -16 3 -25 l22 -7 -25 -8 c-28 -9 76 -14 240 -12 163 3 506 -11 480 -19
-14 -4 48 -7 138 -8 89 -1 162 2 162 7 0 4 17 7 37 8 20 0 39 6 41 12 2 7 8
10 13 6 26 -16 148 98 185 173 24 48 27 214 5 235 -8 7 -11 8 -8 2 4 -6 0 -20
-8 -30 -8 -10 -15 -24 -15 -31 0 -16 -38 -53 -94 -94 -25 -18 -46 -38 -46 -46
0 -17 -14 -17 -29 0 -8 10 -7 19 4 33 8 10 14 26 14 34 -1 13 -1 13 -6 0 -7
-16 -18 -27 -48 -50 -13 -9 -11 -4 6 15 40 45 51 72 51 126 -1 61 -30 115 -79
149 l-37 25 -905 5 c-999 6 -936 1 -1034 69 -103 70 -158 158 -185 292 -15 76
-15 89 1 162 21 102 64 175 142 238 113 93 111 92 580 100 226 3 411 7 413 8
1 0 2 6 2 12 0 6 21 47 47 90 49 83 182 227 257 279 40 27 50 29 142 31 109 1
230 -7 284 -20 40 -9 51 -5 -98 -41 -167 -40 -282 -100 -382 -200 -36 -36 -75
-84 -88 -107 l-23 -43 93 0 c316 -1 865 -13 928 -21 214 -27 435 -134 609
-295 300 -278 418 -703 303 -1094 -16 -56 -40 -97 -28 -50 3 14 3 19 0 13 -3
-7 -17 -13 -31 -13 -20 0 -23 4 -18 20 5 15 2 20 -13 20 -13 0 -18 7 -18 23 1
16 -5 23 -21 25 -13 2 -23 8 -23 13 0 5 10 10 23 10 18 1 16 3 -8 9 -16 4 -23
8 -15 9 12 1 12 4 -2 12 -10 5 -18 14 -18 19 0 6 -9 19 -19 29 -17 17 -20 17
-25 4 -3 -8 -6 -25 -6 -38 0 -13 -4 -25 -8 -27 -5 -1 -20 -36 -35 -76 -33 -88
-95 -188 -163 -258 -161 -169 -334 -246 -613 -275 -91 -10 -118 -15 -114 -26
4 -9 -6 -13 -36 -13 -23 0 -41 -4 -41 -9 0 -5 -19 -13 -42 -17 l-43 -8 43 -9
c23 -6 42 -14 42 -18 0 -5 5 -9 11 -9 11 0 39 -24 39 -34 0 -2 -8 -7 -17 -9
-10 -3 20 -6 67 -7 413 -11 55 -23 -657 -21 -129 0 -139 -4 -109 -44 7 -10 22
-19 32 -21 11 -1 51 -5 89 -9 39 -4 78 -11 87 -16 9 -5 27 -9 40 -9 15 0 48
-24 94 -69 70 -68 148 -116 243 -149 38 -13 117 -16 456 -19 427 -5 526 1 668
37 157 40 348 133 473 231 80 64 233 224 283 298 23 33 41 63 41 66 0 3 10 20
22 38 13 18 24 34 26 37 2 2 7 -2 12 -10 6 -8 10 -10 10 -4 0 5 -4 14 -8 20
-5 5 -3 20 4 34 11 20 14 21 14 6 0 -13 5 -16 18 -12 14 5 13 3 -3 -9 -32 -25
-11 -85 29 -85 16 0 20 -32 16 -122 -1 -21 3 -38 9 -38 6 0 8 -8 4 -17 -3 -10
13 11 36 47 290 456 332 1037 111 1540 -151 343 -435 640 -765 800 -134 65
-208 92 -340 123 -89 21 -109 21 -1280 24 -1312 4 -1224 8 -1299 -58 -68 -59
-131 -12 -106 80 13 48 51 99 79 106 14 4 30 13 36 21 30 42 52 43 1280 40
1016 -2 1182 -5 1260 -18z m2194 -214 c29 -37 27 -78 -5 -103 -15 -12 -34 -21
-44 -21 -34 0 -70 39 -70 76 0 69 78 101 119 48z m-5566 -329 c32 -31 -14 -83
-48 -55 -15 13 -20 51 -8 63 11 12 41 8 56 -8z m-99 -1100 c52 -48 24 -126
-51 -141 -72 -14 -116 99 -57 145 35 28 75 26 108 -4z m2696 -305 c-8 -6 -22
-10 -30 -10 -8 0 -4 6 10 13 27 15 44 12 20 -3z m-107 -17 c-7 -2 -19 -2 -25
0 -7 3 -2 5 12 5 14 0 19 -2 13 -5z m2594 -45 c-3 -8 -6 -5 -6 6 -1 11 2 17 5
13 3 -3 4 -12 1 -19z m-42 -38 c-9 -41 -17 -33 -9 9 4 17 9 30 11 27 3 -2 2
-19 -2 -36z m-3335 -15 c0 -8 -2 -15 -4 -15 -2 0 -6 7 -10 15 -3 8 -1 15 4 15
6 0 10 -7 10 -15z m85 -54 c-11 -28 -25 5 -18 40 l7 34 8 -30 c4 -16 6 -36 3
-44z m-55 14 c0 -8 -4 -15 -10 -15 -5 0 -7 7 -4 15 4 8 8 15 10 15 2 0 4 -7 4
-15z m-56 -10 c3 -8 1 -15 -4 -15 -6 0 -10 7 -10 15 0 8 2 15 4 15 2 0 6 -7
10 -15z m1803 -1 c-3 -3 -12 -4 -19 -1 -8 3 -5 6 6 6 11 1 17 -2 13 -5z m74
-131 c-12 -20 -14 -14 -5 12 4 9 9 14 11 11 3 -2 0 -13 -6 -23z m-3493 -29
c28 -32 28 -66 -1 -100 -17 -20 -33 -27 -57 -27 -24 0 -40 7 -57 27 -27 32
-29 62 -7 94 33 47 82 49 122 6z m5695 -491 c-7 -2 -21 -2 -30 0 -10 3 -4 5
12 5 17 0 24 -2 18 -5z m-2915 -60 c-10 -2 -26 -2 -35 0 -10 3 -2 5 17 5 19 0
27 -2 18 -5z m-2431 -865 c-3 -7 -5 -2 -5 12 0 14 2 19 5 13 2 -7 2 -19 0 -25z
m59 -127 c12 10 13 9 8 -6 -5 -12 -4 -16 3 -12 6 4 11 1 10 -6 -1 -32 4 -48
13 -42 6 3 10 2 10 -3 0 -5 12 -14 27 -21 21 -10 28 -9 35 1 6 10 10 10 18 -2
8 -13 10 -12 10 4 0 15 -5 17 -34 12 -19 -4 -37 -2 -41 3 -7 12 45 40 63 34 6
-3 12 -1 13 4 7 74 14 77 17 6 1 -31 7 -62 13 -69 7 -9 7 -20 -2 -36 -6 -13
-8 -20 -4 -16 13 12 46 -28 39 -47 -4 -11 -3 -16 2 -12 5 3 32 -17 59 -44 27
-27 44 -49 37 -49 -7 0 -12 4 -12 10 0 5 -7 6 -17 3 -12 -5 -14 -3 -8 7 5 9 4
11 -3 6 -14 -9 -55 12 -47 24 3 5 0 12 -6 16 -8 4 -9 3 -5 -4 12 -20 -4 -13
-50 20 -89 64 -185 208 -199 298 -3 21 3 10 16 -28 17 -52 23 -61 35 -51z"/>
<path d="M7420 5786 c0 -8 4 -17 9 -20 5 -4 7 3 4 14 -6 23 -13 26 -13 6z"/>
<path d="M7881 4974 c0 -11 3 -14 6 -6 3 7 2 16 -1 19 -3 4 -6 -2 -5 -13z"/>
<path d="M2945 5621 c-79 -36 -102 -92 -63 -150 46 -68 66 -76 201 -78 72 -1
112 1 97 6 -14 4 256 8 600 8 344 1 612 -2 595 -6 -16 -3 40 -5 125 -3 379 7
357 9 438 -32 41 -20 103 -41 143 -48 47 -8 69 -17 69 -26 0 -8 6 -12 14 -9 9
4 13 1 10 -7 -2 -7 4 -22 15 -34 14 -16 21 -19 24 -10 3 7 6 3 6 -9 1 -12 6
-25 13 -29 7 -5 8 -3 3 6 -5 9 -4 11 3 6 7 -4 12 -12 12 -18 0 -5 6 -24 14
-41 38 -83 48 -244 22 -342 -35 -131 -128 -250 -247 -314 -118 -64 -84 -62
-1089 -67 l-915 -5 -50 -25 c-60 -29 -86 -62 -92 -119 -5 -38 -2 -46 30 -77
19 -20 53 -40 78 -47 34 -9 230 -11 829 -8 670 3 800 6 890 20 205 33 313 64
435 125 116 59 242 181 297 287 196 382 15 882 -372 1024 -109 40 -144 41
-1134 41 -911 0 -963 -1 -1001 -19z m1658 -218 c-24 -2 -62 -2 -85 0 -24 2 -5
4 42 4 47 0 66 -2 43 -4z"/>
<path d="M3878 5393 c23 -2 59 -2 80 0 20 2 1 4 -43 4 -44 0 -61 -2 -37 -4z"/>
<path d="M4198 5393 c23 -2 61 -2 85 0 23 2 4 4 -43 4 -47 0 -66 -2 -42 -4z"/>
<path d="M5020 4974 c0 -8 5 -12 10 -9 6 3 10 10 10 16 0 5 -4 9 -10 9 -5 0
-10 -7 -10 -16z"/>
<path d="M3845 4825 c23 -8 85 -10 85 -3 0 4 -21 8 -47 7 -27 0 -43 -2 -38 -4z"/>
<path d="M4115 4820 c3 -5 15 -10 25 -10 10 0 22 5 25 10 4 6 -7 10 -25 10
-18 0 -29 -4 -25 -10z"/>
<path d="M4498 4823 c12 -2 32 -2 45 0 12 2 2 4 -23 4 -25 0 -35 -2 -22 -4z"/>
<path d="M4648 4823 c7 -3 16 -2 19 1 4 3 -2 6 -13 5 -11 0 -14 -3 -6 -6z"/>
<path d="M3778 4813 c7 -3 16 -2 19 1 4 3 -2 6 -13 5 -11 0 -14 -3 -6 -6z"/>
<path d="M3350 4752 c0 -4 -8 -8 -17 -9 -53 -2 -130 -12 -145 -18 -19 -8 -25
-35 -8 -35 6 0 16 -11 22 -25 12 -27 34 -33 40 -13 3 9 9 8 22 -5 22 -22 94
-23 102 -2 4 10 19 15 43 15 27 0 32 -3 21 -10 -13 -9 -13 -10 1 -10 8 0 20 5
26 11 6 6 17 8 23 4 9 -6 9 -10 -1 -16 -10 -6 -6 -9 14 -9 20 0 30 7 37 26 10
25 30 25 30 -1 0 -17 23 -25 75 -25 49 0 60 10 51 46 -9 33 -22 30 -29 -6 -5
-23 -12 -30 -29 -30 -20 1 -21 2 -7 13 19 14 43 57 36 64 -11 10 -46 -22 -56
-51 -10 -30 -10 -29 -5 9 3 22 11 43 17 47 6 4 9 10 5 13 -10 10 -98 13 -98 4
0 -5 -15 -9 -34 -9 -46 0 -66 -9 -66 -29 -1 -14 -2 -14 -15 2 -9 13 -22 18
-42 14 -15 -2 -22 -2 -15 0 11 4 18 43 7 43 -3 0 -5 -4 -5 -8z m-124 -52 c8 0
14 5 14 10 0 18 28 11 35 -9 3 -10 15 -27 26 -37 21 -19 21 -18 45 9 22 25 24
26 24 8 0 -11 -9 -25 -19 -31 -25 -13 -64 -13 -56 0 3 6 -1 10 -9 10 -9 0 -16
9 -16 20 0 11 -7 20 -15 20 -8 0 -15 -9 -15 -20 0 -11 -7 -20 -15 -20 -8 0
-15 6 -15 14 0 8 -2 20 -3 28 -2 7 -2 10 0 6 3 -5 11 -8 19 -8z m79 10 c-3 -6
4 -10 16 -10 18 0 20 -3 11 -12 -10 -10 -17 -7 -34 10 -20 19 -20 22 -5 22 10
0 15 -4 12 -10z m185 6 c0 -2 -7 -9 -15 -16 -12 -10 -15 -10 -15 4 0 9 7 16
15 16 8 0 15 -2 15 -4z m40 -6 c0 -5 -2 -10 -4 -10 -3 0 -8 5 -11 10 -3 6 -1
10 4 10 6 0 11 -4 11 -10z m47 -12 c-3 -8 -6 -5 -6 6 -1 11 2 17 5 13 3 -3 4
-12 1 -19z m-60 -30 c-3 -8 -6 -5 -6 6 -1 11 2 17 5 13 3 -3 4 -12 1 -19z"/>
<path d="M3890 4730 c0 -5 5 -10 10 -10 6 0 10 5 10 10 0 6 -4 10 -10 10 -5 0
-10 -4 -10 -10z"/>
<path d="M3097 4680 c-25 -35 -22 -40 26 -40 41 0 42 1 21 18 -12 9 -24 23
-26 31 -3 11 -9 8 -21 -9z"/>
<path d="M4638 4093 c6 -2 18 -2 25 0 6 3 1 5 -13 5 -14 0 -19 -2 -12 -5z"/>
<path d="M2823 2814 c45 -47 57 -53 57 -29 0 10 -7 15 -17 13 -12 -2 -19 4
-21 17 -2 12 -15 26 -32 32 -29 11 -28 10 13 -33z"/>
<path d="M2856 2825 c4 -8 8 -15 10 -15 2 0 4 7 4 15 0 8 -4 15 -10 15 -5 0
-7 -7 -4 -15z"/>
</g>
</svg>
